PathFileType	4	(X/Y/Z)	C:/Users/beibeiliu/ov580/test_trc/User3\sequence.49_training_dense_left.trc
DataRate	CameraRate	NumFrames	NumMarkers	Units	OrigDataRate	OrigDataStartFrame	OrigNumFrames
120	120	17	19	mm	120	30	87
Frame#	Time	ThumbCMC			ThumbMCP			ThumbIP			ThumbTip			IndexMCP			IndexPIP			IndexTip			MiddleMCP			MiddlePIP			MiddleTip			RingMCP			RingPIP			RingTip			PinkyMCP			PinkyPIP			PinkyTip			BackHand1			BackHand2			BackHand3	
		X0	Y0	Z0	X1	Y1	Z1	X2	Y2	Z2	X3	Y3	Z3	X4	Y4	Z4	X5	Y5	Z5	X6	Y6	Z6	X7	Y7	Z7	X8	Y8	Z8	X9	Y9	Z9	X10	Y10	Z10	X11	Y11	Z11	X12	Y12	Z12	X13	Y13	Z13	X14	Y14	Z14	X15	Y15	Z15	X16	Y16	Z16	X17	Y17	Z17	X18	Y18	Z18	
29	0.241667	-174.512	-44.6353	77.4201	-187.014	-34.199	53.6614	-207.749	-26.3804	33.0068	-216.569	-15.7124	14.84	-148.65	-45.3264	0.794881	-151.464	-30.7952	-26.212	-150.817	-5.95241	-44.7989	-121.92	-37.9639	-2.47592	-120.709	-11.2475	-20.2916	-121.346	26.6059	-20.3905	-104.933	-35.3769	9.08574	-99.0915	-13.3296	-7.89297	-94.551	14.0591	-13.0837	-88.2152	-34.4769	27.9414	-77.2609	-15.7879	12.9357	-74.1624	5.39534	1.99026	-117.175	-67.2522	58.0003	-119.012	-71.1332	86.1348	-148.855	-69.4746	66.3218	
30	0.25	-171.227	-43.6979	73.1039	-192.138	-33.8105	52.3516	-203.069	-22.8582	32.5646	-212.165	-12.0787	10.5247	-152.662	-40.9429	-4.80762	-148.304	-24.7413	-24.2147	-144.351	5.93077	-37.8584	-122.452	-44.346	-1.83773	-117.612	-19.4223	-25.7841	-116.086	14.9881	-26.4479	-103.779	-44.182	4.76168	-94.1011	-25.7296	-15.3841	-94.6432	0.0880152	-28.0899	-84.9527	-38.8871	25.3419	-74.1809	-26.2852	11.7525	-65.0295	-6.59383	-7.12635	-112.414	-69.188	54.5071	-116.9	-71.7018	86.4118	-146.992	-69.1338	64.6788	
31	0.258333	-172.485	-44.0026	74.214	-192.941	-29.931	52.9741	-200.911	-18.6047	31.5961	-207.819	-4.18477	9.83051	-148.96	-44.0541	-5.37967	-150.975	-25.3852	-26.1019	-146.987	3.8822	-35.5995	-123.011	-54.4636	-7.00302	-117.142	-35.5423	-32.069	-114.675	0.0192114	-40.9966	-101.55	-51.4092	7.78397	-95.2339	-40.878	-15.8302	-89.1949	-16.142	-35.0419	-83.3465	-43.0191	28.4813	-70.0001	-29.5791	9.75929	-63.8023	-14.7869	-4.12582	-113.954	-71.0573	55.4762	-119.14	-72.2324	86.7713	-150.967	-68.5031	62.9087	
32	0.266667	-172.724	-40.7154	70.8109	-187.402	-22.1299	51.2567	-193.975	-3.99241	27.9001	-183.944	10.0957	8.05115	-153.18	-51.222	-1.15965	-150.639	-34.9843	-30.2927	-145.34	-7.50744	-41.5405	-122.481	-62.1525	-2.01034	-115.894	-52.5149	-33.2415	-112.152	-19.1205	-49.3872	-104.534	-56.6695	7.13313	-92.977	-47.2998	-16.2213	-86.7843	-22.8364	-33.7212	-81.8196	-42.9072	26.9894	-75.005	-27.9621	8.43472	-69.2079	-4.86673	-3.72688	-113.672	-72.3738	54.7084	-120.425	-73.0397	86.6083	-145.927	-68.8388	64.6625	
33	0.275	-175.236	-38.1822	71.0284	-182.216	-13.4379	48.0629	-177.134	7.16147	22.8367	-162.218	18.4577	11.2004	-149.88	-55.9731	-0.160714	-150.901	-46.8504	-30.8273	-148.293	-21.0812	-47.2754	-124.787	-64.9661	-3.3319	-117.294	-57.4401	-31.7396	-111.998	-28.9244	-51.0423	-104.498	-55.2855	5.98175	-93.7523	-42.2956	-14.7511	-88.8058	-11.7436	-26.4882	-81.9635	-39.3831	24.9371	-79.8843	-19.7587	12.4459	-76.7854	4.79791	7.69612	-117.941	-73.1182	55.157	-121.165	-75.1803	83.6284	-148.212	-71.6285	63.5101	
34	0.283333	-172.342	-39.037	72.1102	-178.688	-11.3935	50.0317	-170.181	6.58868	27.7444	-150.16	17.2172	13.1311	-152.078	-58.9084	3.23818	-151.773	-51.288	-31.2462	-149.847	-34.4319	-48.5629	-124.279	-63.8254	-3.40177	-115.791	-50.7521	-31.6519	-111.63	-17.4392	-47.3287	-102.105	-51.4836	9.798	-96.9503	-29.6111	-12.7752	-95.1886	2.86743	-11.7642	-85.9605	-38.2365	31.9732	-85.3295	-11.9001	17.9947	-93.0757	12.8415	19.0271	-117.393	-73.5021	57.4635	-121.221	-75.862	90.0504	-146.956	-72.5095	65.3516	
35	0.291667	-173.929	-39.6864	75.4147	-176.772	-16.1744	47.8509	-170.039	0.305718	27.4581	-152.111	12.7197	12.2426	-153.241	-59.7138	2.81225	-155.634	-49.2884	-29.9668	-150.904	-31.6023	-46.1186	-120.383	-58.7029	-2.80512	-118.351	-39.0859	-28.2484	-115.416	-4.33424	-36.5181	-101.692	-48.3303	11.5046	-96.917	-22.3583	-7.15907	-99.4357	6.14412	-1.66556	-85.5525	-37.6824	28.194	-86.3887	-12.0905	19.4676	-92.4646	10.4766	26.0636	-114.483	-75.6772	57.5737	-119.561	-78.5451	89.8862	-148.102	-72.0407	68.8374	
36	0.3	-174.992	-39.3448	75.4563	-178.38	-20.16	48.532	-176.44	-4.84143	26.1577	-167.397	10.1666	3.9481	-148.891	-53.3733	0.621204	-147.645	-40.4813	-25.4866	-139.735	-15.1656	-39.3543	-124.709	-55.441	-1.3222	-120.298	-33.8639	-24.3234	-109.207	1.23638	-25.1986	-104.582	-54.4515	12.4276	-96.7687	-33.6932	-7.34521	-95.6564	2.56201	-4.46425	-88.0204	-49.4863	26.1683	-82.5267	-28.8662	13.0791	-82.9904	-0.0439869	16.8608	-116.899	-77.7445	61.2327	-123.788	-80.9697	88.1581	-150.88	-71.7217	68.254	
37	0.308333	-171.582	-29.7463	73.0676	-176.903	-12.6261	46.5807	-177.095	1.56071	25.3797	-174.587	14.5574	2.73541	-147.63	-41.6735	-4.61192	-140.024	-23.1245	-25.5756	-128.238	2.48838	-31.2961	-127.247	-54.5329	-1.35463	-116.521	-33.6562	-25.0445	-99.8618	-2.69763	-26.3223	-109.678	-62.799	9.44374	-99.5981	-44.3209	-16.1402	-82.8994	-15.2413	-18.4315	-93.7255	-66.5955	29.3161	-80.2931	-54.6097	7.03577	-74.8693	-31.7046	-2.95069	-130.664	-76.402	60.4595	-130.044	-81.1049	88.2507	-160.804	-63.8246	64.514	
38	0.316667	-161.509	-11.0594	72.478	-164.157	10.9769	48.9514	-163.551	24.6543	23.7068	-157.134	33.5648	5.98702	-146.689	-26.3247	-2.47883	-129.953	-7.86598	-24.9003	-105.604	5.95857	-29.4655	-138.378	-45.2695	-5.86568	-119.3	-34.679	-31.3714	-90.1303	-12.9752	-40.2948	-125.311	-60.6965	3.12199	-111.452	-55.3621	-21.9017	-89.0527	-39.5102	-35.1021	-109.696	-71.9105	21.8293	-96.3438	-72.7343	0.462536	-77.8983	-57.9038	-18.3115	-139.576	-69.0758	57.034	-146.625	-68.3554	83.4198	-166.699	-44.5247	63.4166	
39	0.325	-142.95	8.72015	73.3534	-135.753	26.7631	52.7292	-131.215	45.6826	25.3929	-124.976	57.8232	5.06262	-137.157	-4.64834	-7.49046	-120.49	3.00922	-24.9986	-90.3415	7.80701	-34.3605	-143.425	-31.0358	-11.5437	-127.548	-25.882	-37.8556	-102.623	-22.2654	-54.7443	-140.165	-45.51	0.392433	-129.424	-47.507	-27.3393	-107.339	-46.7191	-49.1868	-130.817	-66.2551	15.1121	-123.444	-70.089	-7.32832	-106.626	-68.006	-28.4259	-155.09	-48.1927	52.5778	-155.635	-51.3233	80.4895	-162.732	-15.9278	64.876	
40	0.333333	-116.128	23.7355	75.0918	-102.344	35.2981	54.4457	-89.1547	51.7096	33.7454	-76.5793	61.9623	17.1978	-127.492	16.8248	-6.68717	-108.946	19.4761	-26.7538	-89.6497	11.1712	-43.1796	-147.083	-2.6016	-10.0604	-138.727	-0.889043	-37.6777	-118.354	-1.71004	-65.223	-151.617	-23.3683	-1.64531	-148.438	-22.8371	-28.4932	-133.502	-27.1496	-56.3786	-150.94	-43.4274	14.1523	-151.082	-51.4531	-9.97672	-144.519	-52.9315	-34.261	-161.405	-25.0247	48.0432	-161.884	-25.6661	79.3893	-151.354	6.27047	65.7628	
41	0.341667	-93.9904	18.2317	77.1126	-75.2765	20.4517	59.7955	-51.9383	32.7312	36.5449	-39.8964	34.4944	18.4644	-113.059	30.757	1.33361	-102.382	34.4627	-22.9311	-92.3132	27.6323	-47.3709	-141.479	19.9889	-6.17687	-137.335	24.9792	-33.7026	-131.622	20.7086	-65.3186	-154.2	-1.12836	1.56775	-152.105	2.97997	-25.0863	-147.821	-1.44187	-53.4222	-163.526	-23.9039	12.9262	-166.194	-26.3347	-10.2622	-168.05	-32.0114	-35.9599	-156	-1.31916	51.9463	-154.581	-4.39903	81.1483	-131.031	19.4732	70.1588	
42	0.35	-81.478	3.82105	73.1054	-56.8103	0.84046	58.4862	-39.9998	-2.83954	32.4996	-28.0571	-8.66093	16.0422	-97.8344	33.3647	7.15638	-89.8536	40.8766	-20.6909	-83.2478	44.4751	-46.705	-129.212	30.5531	-2.71891	-129.39	37.6307	-28.5967	-123.905	42.6372	-61.8934	-148.114	10.9608	4.39382	-153.168	13.8252	-23.2574	-151.752	13.5738	-49.6766	-164.076	-8.11431	15.6045	-169.472	-8.50091	-6.52064	-175.511	-9.96367	-28.4859	-146.077	10.7971	57.2805	-146.508	4.99002	85.0023	-116.273	19.8346	71.4368	
43	0.358333	-75.4748	-6.65869	74.0508	-58.04	-19.6909	54.0757	-42.0659	-31.3308	33.7838	-33.3741	-43.9207	10.3462	-94.9179	29.6675	7.33229	-82.0267	40.3477	-11.0534	-78.4133	49.7263	-33.985	-123.276	28.4426	3.1472	-118.886	40.4957	-26.4558	-119.903	44.8092	-55.0316	-142.681	13.4102	2.61287	-147.465	15.2808	-18.3735	-153.745	13.3288	-46.7963	-159.162	-1.72698	14.944	-167.683	-4.80894	-2.69808	-175.026	-4.59755	-21.2068	-138.286	15.4317	55.9219	-143.303	9.28575	87	-106.227	17.6841	72.5272	
44	0.366667	-78.9722	-13.0198	76.1306	-57.6307	-31.8717	55.3372	-44.7339	-46.915	29.0457	-45.3111	-59.0994	11.5992	-89.6075	20.3533	9.18505	-81.2892	30.3597	-12.4002	-76.3758	38.9146	-38.7524	-117.049	21.5089	3.55301	-118.374	27.9995	-24.0481	-116.411	32.3394	-57.1513	-142.412	7.96663	3.04643	-146.184	8.13402	-16.9129	-153.194	4.07301	-45.0043	-157.267	-4.63435	21.4952	-167.172	-7.58355	-2.0141	-172.32	-5.60856	-22.8042	-135.894	13.1897	59.0978	-134.801	11.0246	87.2784	-101.894	16.735	69.4861	
45	0.375	-76.2636	-18.1889	76.786	-58.7796	-35.5822	55.0717	-49.9543	-49.695	34.8347	-43.718	-61.8488	18.2147	-86.8037	6.35344	4.4678	-78.2329	6.15775	-21.7912	-75.1498	4.91253	-46.5789	-114.363	9.46157	-2.67992	-117.144	7.99206	-31.7719	-114.312	5.88213	-58.9743	-135.221	3.63338	6.327	-141.382	2.04312	-15.277	-148.972	-0.68146	-45.3591	-156.697	-3.6463	20.6054	-165.403	-4.92781	3.28109	-170.078	-0.668967	-15.1569	-136.471	11.2154	60.7521	-131.938	12.4019	90.3754	-100.2	11.1504	72.1492	
